<?xml version="1.0" standalone="no"?>
<!DOCTYPE svg PUBLIC "-//W3C//DTD SVG 20010904//EN"
 "http://www.w3.org/TR/2001/REC-SVG-20010904/DTD/svg10.dtd">
<svg version="1.0" xmlns="http://www.w3.org/2000/svg"
 width="128.000000pt" height="128.000000pt" viewBox="0 0 128.000000 128.000000"
 preserveAspectRatio="xMidYMid meet">

<g transform="translate(0.000000,128.000000) scale(0.100000,-0.100000)"
fill="#000000" stroke="none">
<path d="M451 1263 c-48 -17 -111 -74 -137 -125 -21 -41 -30 -150 -15 -203 25
-93 114 -170 210 -182 73 -8 133 12 191 64 117 105 120 278 7 388 -76 74 -158
92 -256 58z"/>
<path d="M405 681 c-86 -31 -128 -57 -184 -112 -87 -88 -131 -195 -131 -321
l0 -78 345 0 345 0 0 43 c1 85 59 164 140 188 l39 12 -26 50 c-37 75 -129 161
-210 200 -60 28 -79 32 -168 34 -77 2 -111 -2 -150 -16z"/>
<path d="M970 323 c-20 -8 -30 -24 -30 -50 0 -20 -5 -23 -35 -23 -34 0 -35 -1
-35 -40 l0 -40 40 0 40 0 0 -40 c0 -39 1 -40 35 -40 34 0 35 1 35 40 l0 40 40
0 40 0 0 40 0 40 -40 0 -40 0 0 40 c0 41 -10 48 -50 33z"/>
</g>
</svg>
